<svg width="48" height="17" viewBox="0 0 48 17" fill="none" xmlns="http://www.w3.org/2000/svg">
<path d="M0.380531 0.199999H7.22053C8.99653 0.199999 10.5645 0.559999 11.9245 1.28C13.2845 1.984 14.3405 2.976 15.0925 4.256C15.8445 5.52 16.2205 6.968 16.2205 8.6C16.2205 10.232 15.8445 11.688 15.0925 12.968C14.3405 14.232 13.2845 15.224 11.9245 15.944C10.5645 16.648 8.99653 17 7.22053 17H0.380531V0.199999ZM7.12453 15.464C8.59653 15.464 9.88453 15.176 10.9885 14.6C12.0925 14.008 12.9485 13.2 13.5565 12.176C14.1645 11.136 14.4685 9.944 14.4685 8.6C14.4685 7.256 14.1645 6.072 13.5565 5.048C12.9485 4.008 12.0925 3.2 10.9885 2.624C9.88453 2.032 8.59653 1.736 7.12453 1.736H2.15653V15.464H7.12453ZM30.5823 3.296C28.9343 2.336 27.1103 1.784 25.1103 1.64V17H23.3343V1.64C21.3663 1.768 19.5343 2.32 17.8383 3.296L17.1903 1.904C19.2703 0.671999 21.6063 0.0559993 24.1983 0.0559993C26.8383 0.0559993 29.1823 0.671999 31.2303 1.904L30.5823 3.296ZM41.3116 0.0559993C43.3276 0.0559993 44.9036 0.655999 46.0396 1.856C47.1916 3.056 47.7676 4.768 47.7676 6.992V17H45.9916V7.04C45.9916 5.264 45.5516 3.92 44.6716 3.008C43.7916 2.096 42.5596 1.64 40.9756 1.64C39.3116 1.64 38.0156 2.128 37.0876 3.104C36.1596 4.064 35.6956 5.512 35.6956 7.448V17H33.9196V0.199999H35.6236V3.032C36.6956 1.048 38.5916 0.0559993 41.3116 0.0559993Z" fill="white"/>
</svg>
